#!OML:ASF H:\Not Pregnant\Project 1\Capture day 1\Session 1\non-pregnant.ASF
:FULLY-SPECIFIED
:DEGREES
1036
root 5.09324 16.0428 22.584 10.7879 1.47756 -6.36939
lowerback -8.44776 0.155673 4.01912
upperback -6.35499 -0.0262251 1.82017
thorax -1.86044 -0.106652 -0.374444
lowerneck 41.5824 -16.9699 -26.5327
upperneck -30.9584 -28.0081 49.1882
head -2.48154 -19.5857 28.4392
rclavicle -2.43263e-014 -6.16232e-015
rhumerus -34.2265 1.94913 -89.8497
rradius 25.5018
rwrist 27.716
rhand -2.62325 2.67932
rfingers 7.12502
rthumb 23.0755 -25.959
lclavicle -2.43263e-014 -6.16232e-015
lhumerus -47.3218 -12.6349 99.2494
lradius 45.1492
lwrist 43.5678
lhand -21.5932 -9.48084
lfingers 7.12502
lthumb 4.80154 20.4448
rfemur -27.9268 2.10643 27.1056
rtibia 27.6571
rfoot -13.4218 22.2886
rtoes -16.0561
lfemur 0.0478656 -6.46193 -12.4981
ltibia 14.0263
lfoot -20.9644 -5.25869
ltoes -25.3914
1037
root 5.10304 16.0433 22.5688 10.8015 1.28807 -6.3447
lowerback -8.43171 0.135014 3.97487
upperback -6.33182 -0.0514764 1.82286
thorax -1.84548 -0.117603 -0.348717
lowerneck 41.6366 -17.0358 -26.4485
upperneck -31.0038 -28.049 49.202
head -2.49875 -19.6196 28.4278
rclavicle -7.95139e-016 -8.54774e-015
rhumerus -34.0691 1.99759 -89.7437
rradius 25.5781
rwrist 28.1569
rhand -3.08572 2.84778
rfingers 7.12502
rthumb 22.6317 -25.8454
lclavicle -7.95139e-016 -8.54774e-015
lhumerus -47.2097 -12.1266 98.7438
lradius 44.0636
lwrist 43.2537
lhand -21.6543 -9.5486
lfingers 7.12502
lthumb 4.74256 20.3783
rfemur -27.9889 2.19728 27.0347
rtibia 27.6232
rfoot -13.3321 22.3942
rtoes -16.0742
lfemur 0.026714 -6.31905 -12.5913
ltibia 14.0158
lfoot -20.9686 -5.22622
ltoes -25.2645
1038
root 5.11293 16.0439 22.5527 10.8178 1.08953 -6.32013
lowerback -8.40851 0.117904 3.93039
upperback -6.31449 -0.0714029 1.82347
thorax -1.84035 -0.12614 -0.324616
lowerneck 41.6865 -17.09 -26.3753
upperneck -31.0281 -28.084 49.2118
head -2.51091 -19.649 28.4155
rclavicle 1.14301e-015 -1.05356e-014
rhumerus -33.924 2.07554 -89.657
rradius 25.6718
rwrist 28.5339
rhand -3.55508 2.98191
rfingers 7.12502
rthumb 22.1812 -25.7655
lclavicle 1.14301e-015 -1.05356e-014
lhumerus -47.109 -11.6068 98.2237
lradius 42.9936
lwrist 42.9801
lhand -21.6838 -9.5261
lfingers 7.12502
lthumb 4.71414 20.4015
rfemur -28.0551 2.30263 26.9608
rtibia 27.5831
rfoot -13.234 22.498
rtoes -16.078
lfemur -0.0048939 -6.16985 -12.6853
ltibia 14.0156
lfoot -20.9753 -5.19155
ltoes -25.123
1039
root 5.12305 16.0443 22.5361 10.8341 0.885741 -6.29577
lowerback -8.38475 0.105225 3.88846
upperback -6.30108 -0.0854472 1.82113
thorax -1.83946 -0.131974 -0.304571
lowerneck 41.7411 -17.1322 -26.3144
upperneck -31.0364 -28.1144 49.2195
head -2.51955 -19.6753 28.4075
rclavicle -3.97569e-016 -1.98785e-016
rhumerus -33.7925 2.19732 -89.5971
rradius 25.7846
rwrist 28.7775
rhand -4.03233 3.05725
rfingers 7.12502
rthumb 21.7229 -25.7439
lclavicle -3.97569e-016 -1.98785e-016
lhumerus -47.0208 -11.098 97.6984
lradius 41.9405
lwrist 42.7511
lhand -21.6894 -9.43472
lfingers 7.12502
lthumb 4.70865 20.493
rfemur -28.1198 2.40599 26.8863
rtibia 27.5377
rfoot -13.1327 22.6132
rtoes -16.0593
lfemur -0.041901 -6.0133 -12.7804
ltibia 14.0253
lfoot -20.9895 -5.15513
ltoes -24.9828
1040
root 5.1334 16.0446 22.5189 10.851 0.675924 -6.27451
lowerback -8.35696 0.0966714 3.8517
upperback -6.28789 -0.0941323 1.81634
thorax -1.84087 -0.135378 -0.289575
lowerneck 41.7867 -17.1669 -26.2605
upperneck -31.0299 -28.14 49.2273
head -2.52313 -19.6986 28.3993
rclavicle 7.26806e-015 -1.53064e-014
rhumerus -33.6679 2.36262 -89.5667
rradius 25.9151
rwrist 28.8712
rhand -4.54232 3.07746
rfingers 7.12502
rthumb 21.2331 -25.7796
lclavicle 7.26806e-015 -1.53064e-014
lhumerus -46.9343 -10.5873 97.161
lradius 40.9087
lwrist 42.544
lhand -21.6966 -9.29034
lfingers 7.12502
lthumb 4.70173 20.6375
rfemur -28.1841 2.51196 26.8138
rtibia 27.4862
rfoot -13.0321 22.7339
rtoes -16.0456
lfemur -0.0860634 -5.84916 -12.8733
ltibia 14.0446
lfoot -21.0064 -5.11697
ltoes -24.854
1041
root 5.14406 16.0451 22.5009 10.8694 0.462175 -6.25296
lowerback -8.33036 0.0925381 3.81888
upperback -6.26983 -0.097474 1.80688
thorax -1.83639 -0.136192 -0.281274
lowerneck 41.8157 -17.1994 -26.2078
upperneck -31.0146 -28.1618 49.2403
head -2.52139 -19.7204 28.3914
rclavicle -8.01351e-015 1.90833e-014
rhumerus -33.5365 2.55622 -89.5582
rradius 26.0556
rwrist 28.8385
rhand -5.06474 3.05022
rfingers 7.12502
rthumb 20.7312 -25.8624
lclavicle -8.01351e-015 1.90833e-014
lhumerus -46.8393 -10.0657 96.6008
lradius 39.8941
lwrist 42.3109
lhand -21.6534 -9.11154
lfingers 7.12502
lthumb 4.74347 20.8154
rfemur -28.2522 2.60254 26.7444
rtibia 27.4298
rfoot -12.9315 22.8745
rtoes -16.0256
lfemur -0.138824 -5.67786 -12.9673
ltibia 14.0715
lfoot -21.0232 -5.08281
ltoes -24.7264
1042
root 5.15452 16.0457 22.4825 10.8905 0.243726 -6.23348
lowerback -8.29504 0.0946211 3.78444
upperback -6.25682 -0.0918066 1.79611
thorax -1.84169 -0.132649 -0.272796
lowerneck 41.8369 -17.2273 -26.1608
upperneck -30.9918 -28.1809 49.2563
head -2.51527 -19.7407 28.3852
rclavicle 2.6339e-015 -2.22639e-014
rhumerus -33.4166 2.76066 -89.5582
rradius 26.2027
rwrist 28.7155
rhand -5.61971 2.98879
rfingers 7.12502
rthumb 20.1979 -25.9812
lclavicle 2.6339e-015 -2.22639e-014
lhumerus -46.7533 -9.56337 96.0451
lradius 38.8955
lwrist 42.0736
lhand -21.5852 -8.92579
lfingers 7.12502
lthumb 4.8093 20.9996
rfemur -28.322 2.70427 26.6757
rtibia 27.3682
rfoot -12.8308 23.0082
rtoes -16.0247
lfemur -0.197243 -5.49937 -13.058
ltibia 14.1001
lfoot -21.0362 -5.05568
ltoes -24.5957
1043
root 5.16526 16.0467 22.4632 10.9152 0.0212765 -6.20622
lowerback -8.25132 0.100525 3.74406
upperback -6.24992 -0.0800796 1.78048
thorax -1.85778 -0.126179 -0.265591
lowerneck 41.8579 -17.25 -26.1201
upperneck -30.9642 -28.1981 49.2758
head -2.50621 -19.7606 28.3841
rclavicle 1.46604e-014 1.64991e-014
rhumerus -33.3069 2.94715 -89.5532
rradius 26.3528
rwrist 28.5659
rhand -6.20355 2.90416
rfingers 7.12502
rthumb 19.6367 -26.1241
lclavicle 1.46604e-014 1.64991e-014
lhumerus -46.679 -9.08344 95.4975
lradius 37.9237
lwrist 41.8212
lhand -21.5218 -8.72282
lfingers 7.12502
lthumb 4.87048 21.2012
rfemur -28.3988 2.80655 26.5972
rtibia 27.3031
rfoot -12.7222 23.1451
rtoes -16.0182
lfemur -0.263233 -5.31857 -13.1579
ltibia 14.1273
lfoot -21.0414 -5.03261
ltoes -24.4577
1044
root 5.17606 16.0479 22.4442 10.9417 -0.201749 -6.17572
lowerback -8.20795 0.110789 3.70141
upperback -6.24482 -0.062424 1.76147
thorax -1.87538 -0.116757 -0.26022
lowerneck 41.8682 -17.2703 -26.083
upperneck -30.9327 -28.2132 49.2987
head -2.49339 -19.7792 28.3836
rclavicle 1.42876e-015 -2.18663e-015
rhumerus -33.1995 3.10575 -89.5379
rradius 26.4959
rwrist 28.4108
rhand -6.76011 2.78195
rfingers 7.12502
rthumb 19.1015 -26.3
lclavicle 1.42876e-015 -2.18663e-015
lhumerus -46.6122 -8.62439 94.9573
lradius 36.9802
lwrist 41.5466
lhand -21.453 -8.52858
lfingers 7.12502
lthumb 4.93693 21.3939
rfemur -28.4756 2.91042 26.5139
rtibia 27.234
rfoot -12.6094 23.2807
rtoes -16.0079
lfemur -0.330518 -5.13515 -13.2614
ltibia 14.1526
lfoot -21.0427 -5.01692
ltoes -24.3153
1045
root 5.18736 16.0493 22.4241 10.9689 -0.425989 -6.142
lowerback -8.16437 0.120004 3.65738
upperback -6.23769 -0.0461946 1.74127
thorax -1.89103 -0.107978 -0.255427
lowerneck 41.8714 -17.2844 -26.0518
upperneck -30.8964 -28.2235 49.3231
head -2.47857 -19.795 28.3864
rclavicle -4.57205e-015 -2.06736e-014
rhumerus -33.0883 3.23695 -89.5103
rradius 26.6358
rwrist 28.2705
rhand -7.2948 2.64386
rfingers 7.12502
rthumb 18.5873 -26.4881
lclavicle -4.57205e-015 -2.06736e-014
lhumerus -46.5549 -8.16774 94.4187
lradius 36.0873
lwrist 41.2361
lhand -21.4033 -8.32088
lfingers 7.12502
lthumb 4.98491 21.6005
rfemur -28.5563 3.00367 26.4278
rtibia 27.162
rfoot -12.492 23.4286
rtoes -15.9975
lfemur -0.402549 -4.95005 -13.3697
ltibia 14.1777
lfoot -21.0391 -5.00614
ltoes -24.1528
1046
root 5.19923 16.0507 22.403 10.9956 -0.651667 -6.10377
lowerback -8.11094 0.127896 3.6109
upperback -6.234 -0.0310007 1.72079
thorax -1.91572 -0.0997953 -0.249608
lowerneck 41.872 -17.2905 -26.03
upperneck -30.8536 -28.2298 49.3456
head -2.46182 -19.8075 28.3907
rclavicle -4.94477e-015 -1.8487e-014
rhumerus -32.9809 3.34106 -89.4691
rradius 26.7737
rwrist 28.134
rhand -7.77957 2.4914
rfingers 7.12502
rthumb 18.1209 -26.6845
lclavicle -4.94477e-015 -1.8487e-014
lhumerus -46.5132 -7.72752 93.8962
lradius 35.2401
lwrist 40.9092
lhand -21.3663 -8.11013
lfingers 7.12502
lthumb 5.02064 21.8104
rfemur -28.6403 3.08733 26.3366
rtibia 27.0864
rfoot -12.3668 23.5895
rtoes -15.9779
lfemur -0.482691 -4.76468 -13.4846
ltibia 14.21
lfoot -21.0348 -4.9995
ltoes -23.9689
1047
root 5.2114 16.0523 22.3802 11.0233 -0.880742 -6.06571
lowerback -8.05222 0.136621 3.56215
upperback -6.23322 -0.0142555 1.70084
thorax -1.94634 -0.090847 -0.241881
lowerneck 41.8858 -17.2875 -26.0159
upperneck -30.8109 -28.2318 49.3664
head -2.4483 -19.8176 28.4041
rclavicle -1.00262e-014 -7.95139e-015
rhumerus -32.875 3.41565 -89.4158
rradius 26.9093
rwrist 27.9849
rhand -8.19231 2.33425
rfingers 7.12502
rthumb 17.7238 -26.878
lclavicle -1.00262e-014 -7.95139e-015
lhumerus -46.4927 -7.31434 93.3931
lradius 34.4498
lwrist 40.5642
lhand -21.3412 -7.89759
lfingers 7.12502
lthumb 5.04489 22.0224
rfemur -28.7327 3.16852 26.2468
rtibia 27.0084
rfoot -12.2292 23.7593
rtoes -15.9482
lfemur -0.576701 -4.57789 -13.5992
ltibia 14.2543
lfoot -21.0316 -4.99542
ltoes -23.7547
1048
root 5.22366 16.0536 22.3559 11.0516 -1.11806 -6.0287
lowerback -7.98857 0.148421 3.51121
upperback -6.23014 0.00679009 1.68029
thorax -1.97716 -0.0796537 -0.233313
lowerneck 41.8985 -17.2808 -26.0024
upperneck -30.7675 -28.2293 49.3862
head -2.43675 -19.825 28.4205
rclavicle -2.41026e-015 -6.36111e-015
rhumerus -32.7635 3.46427 -89.3547
rradius 27.0476
rwrist 27.796
rhand -8.52152 2.17706
rfingers 7.12502
rthumb 17.407 -27.0635
lclavicle -2.41026e-015 -6.36111e-015
lhumerus -46.4829 -6.92338 92.9038
lradius 33.7193
lwrist 40.1899
lhand -21.3263 -7.6965
lfingers 7.12502
lthumb 5.05927 22.2231
rfemur -28.8327 3.25872 26.1576
rtibia 26.9289
rfoot -12.0874 23.9287
rtoes -15.934
lfemur -0.681771 -4.38798 -13.7129
ltibia 14.3072
lfoot -21.0304 -4.98478
ltoes -23.5488
1049
root 5.23641 16.0552 22.3305 11.0799 -1.35904 -5.98789
lowerback -7.92794 0.160707 3.45837
upperback -6.22183 0.0281622 1.65745
thorax -2.00085 -0.0681293 -0.226092
lowerneck 41.9096 -17.2683 -25.993
upperneck -30.7234 -28.222 49.4103
head -2.4249 -19.8305 28.4451
rclavicle -1.59028e-014 -9.93923e-016
rhumerus -32.6436 3.48839 -89.2876
rradius 27.1862
rwrist 27.5667
rhand -8.79078 2.0372
rfingers 7.12502
rthumb 17.1478 -27.2261
lclavicle -1.59028e-014 -9.93923e-016
lhumerus -46.4859 -6.5476 92.4258
lradius 33.061
lwrist 39.7767
lhand -21.3192 -7.49707
lfingers 7.12502
lthumb 5.06616 22.4224
rfemur -28.94 3.33035 26.0687
rtibia 26.8504
rfoot -11.9434 24.1212
rtoes -15.8846
lfemur -0.792515 -4.19675 -13.8322
ltibia 14.3624
lfoot -21.0296 -4.97478
ltoes -23.3376
